<svg width="256" height="256" viewBox="0 0 256 256" fill="none" xmlns="http://www.w3.org/2000/svg">
<path d="M143.038 0C149.289 0.00020831 154.493 4.79891 154.999 11.0293L157.612 43.2314C161.067 44.4052 164.428 45.7834 167.681 47.3506L192.882 25.834C197.644 21.7682 204.732 22.0473 209.159 26.4746L229.709 47.0244C234.136 51.4519 234.415 58.5399 230.351 63.3018L209.16 88.1191C210.837 91.4502 212.314 94.8994 213.574 98.4512L244.971 101C251.201 101.506 256 106.71 256 112.961V143.037C256 149.288 251.201 154.492 244.971 154.998L214.006 157.511C212.763 161.185 211.288 164.753 209.601 168.197L229.878 191.979C233.939 196.741 233.657 203.825 229.232 208.25L208.672 228.811C204.246 233.236 197.163 233.517 192.401 229.457L168.777 209.315C165.154 211.122 161.392 212.693 157.512 214.006L154.999 244.971C154.493 251.201 149.289 256 143.038 256H112.962C106.711 256 101.507 251.201 101.001 244.971L98.4521 213.576C94.943 212.331 91.5341 210.875 88.2402 209.223L63.9922 229.864C59.2295 233.918 52.1512 233.635 47.7285 229.212L26.7871 208.271C22.3647 203.849 22.0809 196.77 26.1348 192.008L47.167 167.299C45.6752 164.165 44.3584 160.932 43.2305 157.611L11.0293 154.998C4.79878 154.492 -2.7324e-07 149.288 0 143.037V112.961C0.00022238 106.71 4.79893 101.506 11.0293 101L43.6621 98.3506C44.7864 95.1939 46.0829 92.119 47.5381 89.1357L26.1348 63.9922C22.0806 59.2295 22.3648 52.1513 26.7871 47.7285L47.7285 26.7871C52.1513 22.3645 59.2294 22.0806 63.9922 26.1348L89.1357 47.5381C92.1192 46.0829 95.1947 44.7874 98.3516 43.6631L101.001 11.0293C101.507 4.79879 106.711 0 112.962 0H143.038ZM128.602 90.1416C107.361 90.1416 90.1406 107.362 90.1406 128.603C90.1407 149.843 107.361 167.062 128.602 167.062C149.842 167.062 167.061 149.843 167.062 128.603C167.062 107.362 149.842 90.1418 128.602 90.1416Z" fill="#EEEEEE"/>
</svg>
