<svg width="256" height="256" viewBox="0 0 256 256" fill="none" xmlns="http://www.w3.org/2000/svg">
<rect width="256" height="256" rx="25" fill="#666666"/>
<path fill-rule="evenodd" clip-rule="evenodd" d="M139.748 28C144.632 28 148.697 31.7488 149.093 36.6162L151.135 61.7754C153.834 62.6924 156.46 63.7678 159.001 64.9922L178.689 48.1836C182.41 45.0072 187.947 45.2248 191.405 48.6836L207.46 64.7383C210.919 68.1973 211.137 73.7348 207.961 77.4551L191.406 96.8428C192.717 99.4453 193.871 102.14 194.855 104.915L219.384 106.906C224.251 107.302 228 111.368 228 116.251V139.748C228 144.632 224.251 148.697 219.384 149.093L195.192 151.056C194.221 153.926 193.068 156.713 191.75 159.404L207.593 177.983C210.765 181.704 210.545 187.238 207.088 190.695L191.025 206.759C187.568 210.216 182.034 210.435 178.313 207.263L159.857 191.527C157.027 192.939 154.088 194.166 151.056 195.192L149.093 219.384C148.697 224.251 144.632 228 139.748 228H116.251C111.368 228 107.303 224.251 106.907 219.384L104.916 194.856C102.174 193.884 99.511 192.746 96.9375 191.455L77.9941 207.581C74.2733 210.748 68.7433 210.527 65.2881 207.071L48.9277 190.711C45.4727 187.256 45.2507 181.726 48.418 178.006L64.8486 158.702C63.6833 156.254 62.6546 153.729 61.7734 151.135L36.6162 149.093C31.7487 148.697 28 144.632 28 139.748V116.251C28.0001 111.368 31.7487 107.302 36.6162 106.906L62.1113 104.837C62.9898 102.371 64.0017 99.9676 65.1387 97.6367L48.418 77.9932C45.2509 74.2722 45.4726 68.7423 48.9277 65.2871L65.2881 48.9277C68.7434 45.4725 74.2732 45.2505 77.9941 48.418L97.6377 65.1387C99.9683 64.0019 102.371 62.9896 104.837 62.1113L106.907 36.6162C107.303 31.7489 111.368 28.0002 116.251 28H139.748ZM128.47 98.4238C111.875 98.4238 98.4229 111.876 98.4229 128.471C98.4229 145.065 111.875 158.518 128.47 158.518C145.064 158.518 158.517 145.065 158.517 128.471C158.517 111.876 145.064 98.4239 128.47 98.4238Z" fill="#EEEEEE"/>
</svg>
