<svg width="256" height="256" viewBox="0 0 256 256" fill="none" xmlns="http://www.w3.org/2000/svg">
<rect x="28" y="28" width="200" height="200" rx="25" fill="#AAAAAA"/>
<path d="M90.0801 51C92.3998 51 94.3317 52.7807 94.5195 55.0928L95.4883 67.043C96.7707 67.4786 98.0184 67.9896 99.2256 68.5713L108.577 60.5869C110.344 59.0781 112.975 59.1821 114.618 60.8252L122.244 68.4502C123.887 70.0933 123.99 72.7241 122.481 74.4912L114.616 83.7012C115.238 84.937 115.786 86.2165 116.254 87.5342L127.907 88.4805C130.219 88.6682 132 90.6002 132 92.9199V104.08C132 106.4 130.219 108.332 127.907 108.52L116.416 109.451C115.955 110.814 115.406 112.137 114.78 113.415L122.307 122.242C123.814 124.01 123.708 126.638 122.066 128.28L114.438 135.91C112.795 137.552 110.167 137.657 108.399 136.15L99.6309 128.674C98.2862 129.344 96.8913 129.93 95.4512 130.417L94.5195 141.907C94.3318 144.219 92.3998 146 90.0801 146H78.9199C76.6002 146 74.6682 144.219 74.4805 141.907L73.5342 130.255C72.2327 129.793 70.9688 129.252 69.7471 128.64L60.7471 136.302C58.9798 137.806 56.3531 137.701 54.7119 136.06L46.9404 128.288C45.2994 126.647 45.1939 124.02 46.6982 122.253L54.5039 113.082C53.9505 111.919 53.4614 110.72 53.043 109.488L41.0928 108.52C38.7807 108.332 37 106.4 37 104.08V92.9199C37 90.6002 38.7807 88.6683 41.0928 88.4805L53.2041 87.4971C53.6213 86.3259 54.1017 85.185 54.6416 84.0781L46.6982 74.7471C45.194 72.9797 45.2995 70.3531 46.9404 68.7119L54.7119 60.9404C56.3531 59.2995 58.9797 59.194 60.7471 60.6982L70.0781 68.6416C71.1849 68.1018 72.326 67.6222 73.4971 67.2051L74.4805 55.0928C74.6683 52.7807 76.6002 51 78.9199 51H90.0801ZM84.7227 84.4512C76.8405 84.4514 70.4512 90.8414 70.4512 98.7236C70.4513 106.606 76.8405 112.996 84.7227 112.996C92.605 112.996 98.995 106.606 98.9951 98.7236C98.9951 90.8412 92.6051 84.4512 84.7227 84.4512Z" fill="white"/>
<path d="M170.021 93C172.731 93.0001 174.988 95.0808 175.207 97.7822L176.34 111.745C177.838 112.254 179.295 112.851 180.705 113.53L191.633 104.202C193.698 102.439 196.771 102.56 198.69 104.479L207.601 113.39C209.52 115.309 209.641 118.383 207.879 120.447L198.689 131.209C199.416 132.653 200.056 134.148 200.603 135.688L214.218 136.793C216.919 137.012 219 139.269 219 141.979V155.021C219 157.731 216.919 159.988 214.218 160.207L200.792 161.296C200.253 162.889 199.612 164.434 198.881 165.928L207.674 176.241C209.435 178.306 209.312 181.377 207.394 183.296L198.479 192.211C196.56 194.13 193.489 194.252 191.424 192.491L181.179 183.756C179.608 184.539 177.978 185.222 176.296 185.791L175.207 199.218C174.988 201.919 172.731 204 170.021 204H156.979C154.269 204 152.012 201.919 151.793 199.218L150.688 185.603C149.167 185.063 147.689 184.432 146.262 183.716L135.747 192.668C133.682 194.426 130.613 194.302 128.695 192.385L119.615 183.305C117.698 181.387 117.574 178.318 119.332 176.253L128.452 165.539C127.805 164.18 127.233 162.779 126.744 161.34L112.782 160.207C110.081 159.988 108 157.731 108 155.021V141.979C108 139.269 110.081 137.012 112.782 136.793L126.934 135.645C127.421 134.276 127.982 132.943 128.612 131.649L119.332 120.747C117.574 118.682 117.698 115.613 119.615 113.695L128.695 104.615C130.613 102.698 133.682 102.574 135.747 104.332L146.649 113.612C147.943 112.982 149.276 112.422 150.645 111.935L151.793 97.7822C152.012 95.0808 154.269 93.0001 156.979 93H170.021ZM163.761 132.085C154.551 132.085 147.085 139.551 147.085 148.761C147.085 157.971 154.551 165.437 163.761 165.438C172.971 165.438 180.437 157.971 180.437 148.761C180.436 139.551 172.971 132.085 163.761 132.085Z" fill="white"/>
</svg>
