<svg width="256" height="256" viewBox="0 0 256 256" fill="none" xmlns="http://www.w3.org/2000/svg">
<g clip-path="url(#clip0_67_2)">
<rect width="256" height="256" rx="25" fill="#AAAAAA"/>
<path d="M79.4629 29.4404C82.4321 29.4404 84.9041 31.7193 85.1445 34.6787L86.3857 49.9756C88.0268 50.5331 89.6232 51.1873 91.168 51.9316L103.14 41.7109C105.402 39.78 108.768 39.9126 110.871 42.0156L120.632 51.7764C122.735 53.8795 122.867 57.2469 120.937 59.5088L110.869 71.2979C111.666 72.8797 112.366 74.5175 112.965 76.2041L127.881 77.416C130.84 77.6564 133.12 80.1276 133.12 83.0967V97.3828C133.12 100.352 130.84 102.824 127.881 103.064L113.173 104.258C112.582 106.003 111.88 107.696 111.079 109.332L120.712 120.63C122.641 122.892 122.507 126.257 120.405 128.359L110.64 138.125C108.537 140.227 105.173 140.361 102.911 138.433L91.6865 128.862C89.9658 129.72 88.1808 130.469 86.3379 131.093L85.1445 145.802C84.904 148.761 82.432 151.04 79.4629 151.04H65.1768C62.2077 151.04 59.7356 148.761 59.4951 145.802L58.2842 130.886C56.6181 130.294 54.9995 129.604 53.4355 128.819L41.916 138.626C39.6538 140.551 36.2921 140.416 34.1914 138.315L24.2441 128.368C22.1435 126.268 22.0088 122.905 23.9346 120.644L33.9248 108.905C33.2165 107.417 32.5903 105.882 32.0547 104.306L16.7588 103.064C13.7993 102.824 11.5195 100.352 11.5195 97.3828V83.0967C11.5197 80.1277 13.7995 77.6564 16.7588 77.416L32.2617 76.1572C32.7957 74.6581 33.4095 73.1971 34.1006 71.7803L23.9346 59.8369C22.0088 57.5746 22.1434 54.2122 24.2441 52.1113L34.1914 42.1641C36.2922 40.0636 39.6538 39.9289 41.916 41.8545L53.8604 52.0215C55.2769 51.3306 56.7375 50.7165 58.2363 50.1826L59.4951 34.6787C59.7355 31.7193 62.2076 29.4405 65.1768 29.4404H79.4629ZM72.6055 72.2578C62.516 72.2579 54.3369 80.4369 54.3369 90.5264C54.337 100.616 62.5161 108.795 72.6055 108.795C82.6949 108.795 90.8739 100.616 90.874 90.5264C90.874 80.4369 82.6949 72.2578 72.6055 72.2578Z" fill="white"/>
<path d="M181.786 83.2002C185.255 83.2002 188.144 85.8634 188.425 89.3213L189.875 107.193C191.793 107.845 193.658 108.61 195.463 109.479L209.45 97.5381C212.093 95.2819 216.027 95.4366 218.483 97.8936L229.889 109.299C232.346 111.756 232.5 115.69 230.244 118.333L218.482 132.107C219.413 133.956 220.235 135.87 220.935 137.841L238.358 139.256C241.816 139.537 244.479 142.424 244.479 145.894V162.586C244.479 166.055 241.816 168.944 238.358 169.225L221.174 170.618C220.484 172.657 219.664 174.636 218.728 176.548L229.982 189.748C232.236 192.392 232.08 196.323 229.624 198.779L218.213 210.19C215.756 212.646 211.825 212.802 209.183 210.549L196.069 199.367C194.058 200.37 191.972 201.245 189.818 201.974L188.425 219.159C188.144 222.617 185.255 225.28 181.786 225.28H165.094C161.625 225.28 158.737 222.617 158.456 219.159L157.041 201.734C155.094 201.044 153.204 200.234 151.376 199.317L137.916 210.775C135.273 213.025 131.344 212.867 128.89 210.412L117.268 198.79C114.813 196.336 114.655 192.408 116.905 189.765L128.579 176.05C127.751 174.311 127.019 172.517 126.393 170.675L108.521 169.225C105.064 168.944 102.4 166.055 102.4 162.586V145.894C102.401 142.424 105.064 139.537 108.521 139.256L126.633 137.785C127.257 136.033 127.977 134.327 128.784 132.671L116.905 118.716C114.655 116.072 114.813 112.144 117.268 109.689L128.89 98.0674C131.344 95.6128 135.273 95.4549 137.916 97.7051L151.872 109.585C153.528 108.777 155.234 108.057 156.985 107.433L158.456 89.3213C158.737 85.8634 161.625 83.2003 165.094 83.2002H181.786ZM173.773 133.229C161.985 133.229 152.429 142.786 152.429 154.574C152.429 166.363 161.985 175.92 173.773 175.92C185.562 175.92 195.119 166.363 195.119 154.574C195.119 142.786 185.562 133.229 173.773 133.229Z" fill="white"/>
</g>
<defs>
<clipPath id="clip0_67_2">
<rect width="256" height="256" fill="white"/>
</clipPath>
</defs>
</svg>
