<svg width="256" height="256" viewBox="0 0 256 256" fill="none" xmlns="http://www.w3.org/2000/svg">
<rect width="256" height="256" rx="25" fill="#888888"/>
<path fill-rule="evenodd" clip-rule="evenodd" d="M79.0215 22C82.2563 22 84.949 24.4828 85.2109 27.707L86.5635 44.3721C88.3517 44.9796 90.0911 45.6928 91.7744 46.5039L104.816 35.3691C107.281 33.2652 110.948 33.4092 113.239 35.7002L123.874 46.335C126.165 48.6262 126.31 52.2945 124.206 54.7588L113.238 67.6035C114.106 69.3267 114.869 71.1109 115.521 72.9482L131.771 74.2676C134.995 74.5294 137.479 77.2231 137.479 80.458V96.0215C137.479 99.2564 134.995 101.95 131.771 102.212L115.747 103.512C115.104 105.413 114.339 107.258 113.466 109.04L123.962 121.349C126.063 123.813 125.917 127.48 123.627 129.77L112.987 140.409C110.697 142.699 107.032 142.845 104.567 140.744L92.3389 130.317C90.4642 131.252 88.5194 132.068 86.5117 132.747L85.2109 148.772C84.949 151.996 82.2562 154.479 79.0215 154.479H63.457C60.2223 154.479 57.5296 151.996 57.2676 148.772L55.9473 132.522C54.1319 131.878 52.369 131.124 50.665 130.27L38.1152 140.954C35.6506 143.052 31.988 142.905 29.6992 140.616L18.8623 129.779C16.5736 127.491 16.4263 123.828 18.5244 121.363L29.4092 108.575C28.6374 106.954 27.9547 105.282 27.3711 103.563L10.707 102.212C7.4828 101.95 5 99.2563 5 96.0215V80.458C5 77.2232 7.4828 74.5295 10.707 74.2676L27.5977 72.8965C28.1794 71.2633 28.8477 69.6715 29.6006 68.1279L18.5244 55.1162C16.4263 52.6515 16.5736 48.988 18.8623 46.6992L29.6992 35.8623C31.9879 33.5739 35.6506 33.4267 38.1152 35.5244L51.1279 46.6025C52.6713 45.8497 54.2624 45.1803 55.8955 44.5986L57.2676 27.707C57.5295 24.4828 60.2222 22 63.457 22H79.0215ZM71.5508 68.6484C60.5586 68.6484 51.6475 77.5596 51.6475 88.5518C51.6477 99.5438 60.5587 108.454 71.5508 108.454C82.5427 108.454 91.4529 99.5437 91.4531 88.5518C91.4531 77.5596 82.5429 68.6486 71.5508 68.6484Z" fill="#CCCCCC"/>
<path fill-rule="evenodd" clip-rule="evenodd" d="M184.639 82C188.338 82 191.417 84.8396 191.717 88.5264L193.263 107.58C195.308 108.275 197.297 109.09 199.222 110.018L214.133 97.2871C216.951 94.8812 221.145 95.0461 223.765 97.666L235.925 109.826C238.544 112.446 238.709 116.639 236.304 119.457L223.765 134.142C224.757 136.113 225.631 138.154 226.377 140.256L244.955 141.764C248.641 142.063 251.48 145.143 251.48 148.842V166.638C251.48 170.336 248.641 173.416 244.955 173.716L226.633 175.202C225.897 177.376 225.024 179.486 224.025 181.524L236.024 195.598C238.427 198.416 238.261 202.607 235.643 205.226L223.477 217.393C220.858 220.011 216.666 220.177 213.849 217.774L199.87 205.855C197.726 206.925 195.5 207.856 193.203 208.633L191.717 226.954C191.417 230.641 188.338 233.48 184.639 233.48H166.843C163.144 233.48 160.064 230.641 159.765 226.954L158.257 208.377C156.18 207.64 154.163 206.779 152.214 205.801L137.866 218.016C135.048 220.414 130.86 220.246 128.243 217.629L115.852 205.237C113.235 202.621 113.067 198.432 115.466 195.614L127.91 180.993C127.028 179.139 126.247 177.226 125.58 175.262L106.526 173.716C102.84 173.416 100 170.336 100 166.638V148.842C100 145.143 102.84 142.063 106.526 141.764L125.837 140.196C126.502 138.328 127.269 136.508 128.13 134.743L115.466 119.865C113.067 117.047 113.235 112.859 115.852 110.242L128.243 97.8506C130.86 95.2338 135.048 95.0659 137.866 97.4648L152.744 110.129C154.509 109.268 156.329 108.502 158.197 107.837L159.765 88.5264C160.064 84.8396 163.144 82 166.843 82H184.639ZM176.097 135.339C163.528 135.339 153.339 145.528 153.339 158.097C153.339 170.665 163.528 180.854 176.097 180.854C188.665 180.854 198.854 170.665 198.854 158.097C198.854 145.528 188.665 135.339 176.097 135.339Z" fill="#CCCCCC"/>
</svg>
