<svg width="256" height="256" viewBox="0 0 256 256" fill="none" xmlns="http://www.w3.org/2000/svg">
<path d="M0 10C0 4.47715 4.47715 0 10 0H246C251.523 0 256 4.47715 256 10V241C256 249.284 249.284 256 241 256H15C6.71573 256 0 249.284 0 241V10Z" fill="#DDDDDD"/>
<path d="M256 241C256 249.284 249.284 256 241 256H15C6.71573 256 0 249.284 0 241V224H256V241ZM256 192H0V160H256V192ZM256 128H0V96H256V128ZM241 0C249.284 0 256 6.71573 256 15V64H0V15C0 6.71573 6.71573 0 15 0H241Z" fill="#EEEEEE"/>
<path d="M0 10C0 4.47715 4.47715 0 10 0H246C251.523 0 256 4.47715 256 10V32H0V10Z" fill="#DDA900"/>
<path d="M141.711 183.711L163.399 199.544L140.428 209.709C139.724 210.02 138.947 209.453 139.029 208.687L141.711 183.711Z" fill="#E6D8A0"/>
<path d="M139.561 203.735L144.983 207.693L140.428 209.709C139.724 210.02 138.946 209.453 139.029 208.687L139.561 203.735Z" fill="black"/>
<path d="M221.255 74.2431C222.555 72.4531 225.062 72.0591 226.849 73.3637L242.075 84.479C243.857 85.7796 244.249 88.2767 242.953 90.0611L163.299 199.681L141.611 183.849L221.255 74.2431Z" fill="#DDA900"/>
</svg>
