<svg width="256" height="256" viewBox="0 0 256 256" fill="none" xmlns="http://www.w3.org/2000/svg">
<path d="M0 10C0 4.47715 4.47715 0 10 0H246C251.523 0 256 4.47715 256 10V241C256 249.284 249.284 256 241 256H15C6.71573 256 0 249.284 0 241V10Z" fill="#DDDDDD"/>
<path d="M256 241C256 249.284 249.284 256 241 256H15C6.71573 256 0 249.284 0 241V237H256V241ZM256 217H0V197H256V217ZM256 177H0V157H256V177ZM256 137H0V117H256V137ZM256 97H0V77H256V97ZM241 0C249.284 0 256 6.71573 256 15V57H0V15C0 6.71573 6.71573 0 15 0H241Z" fill="#EEEEEE"/>
<path d="M0 10C0 4.47715 4.47715 0 10 0H246C251.523 0 256 4.47715 256 10V40H0V10Z" fill="#D3A200"/>
<path d="M137.474 199.971L160.136 214.375L137.866 225.998C137.184 226.354 136.372 225.838 136.405 225.068L137.474 199.971Z" fill="#E6D8A0"/>
<path d="M136.616 220.092L142.282 223.693L137.866 225.998C137.184 226.354 136.372 225.838 136.404 225.069L136.616 220.092Z" fill="black"/>
<path d="M218.53 72.4396C221.493 67.7785 227.673 66.4016 232.334 69.364L238.117 73.0394C242.778 76.0019 244.155 82.182 241.192 86.843L160.136 214.375L157.369 213.855C156.864 213.76 156.415 213.475 156.115 213.058L154.938 211.423C154.638 211.006 154.189 210.721 153.684 210.626L151.704 210.254C151.199 210.159 150.75 209.874 150.45 209.457L149.272 207.822C148.972 207.405 148.523 207.12 148.018 207.025L146.038 206.653C145.533 206.559 145.084 206.273 144.784 205.856L143.607 204.221C143.307 203.805 142.858 203.519 142.353 203.424L140.373 203.052C139.868 202.958 139.419 202.672 139.119 202.256L137.474 199.971L218.53 72.4396Z" fill="#D7AC00"/>
<path d="M221.212 68.2198C222.694 65.8893 225.784 65.2008 228.114 66.682L242.336 75.7214C244.667 77.2026 245.355 80.2927 243.874 82.6232L238.634 90.8674L215.972 76.464L221.212 68.2198Z" fill="#E85BDA"/>
</svg>
