<svg width="256" height="256" viewBox="0 0 256 256" fill="none" xmlns="http://www.w3.org/2000/svg">
<path d="M0 42C0 36.4771 4.47715 32 10 32H246C251.523 32 256 36.4772 256 42V209C256 217.284 249.284 224 241 224H15C6.71573 224 0 217.284 0 209V42Z" fill="#070707"/>
<path d="M28.9286 78.9286C32.8337 75.0234 39.1659 75.0236 43.0712 78.9286L85.0712 120.929C86.4136 122.271 87.2952 123.9 87.7147 125.619C87.791 125.932 87.8516 126.247 87.8973 126.564C88.0346 127.516 88.0346 128.484 87.8973 129.435C87.8516 129.753 87.791 130.068 87.7147 130.381C87.2952 132.1 86.4137 133.729 85.0712 135.071L43.0712 177.071C39.1659 180.976 32.8338 180.976 28.9286 177.071C25.0236 173.166 25.0235 166.834 28.9286 162.929L63.8573 128L28.9286 93.0712C25.0236 89.1659 25.0234 82.8337 28.9286 78.9286ZM218 160C223.523 160 228 164.477 228 170C228 175.523 223.523 180 218 180H97.9999C92.4771 180 87.9999 175.523 87.9999 170C88 164.477 92.4772 160 97.9999 160H218Z" fill="url(#paint0_linear_153_2)"/>
<defs>
<linearGradient id="paint0_linear_153_2" x1="127.357" y1="75.9998" x2="126.642" y2="180" gradientUnits="userSpaceOnUse">
<stop stop-color="white"/>
<stop offset="1" stop-color="#AAAAAA"/>
</linearGradient>
</defs>
</svg>
